<?xml version="1.0" encoding="UTF-8" standalone="no"?>
<!DOCTYPE svg PUBLIC "-//W3C//DTD SVG 1.1//EN" "http://www.w3.org/Graphics/SVG/1.1/DTD/svg11.dtd">
<svg width="100%" height="100%" viewBox="0 0 389 27" version="1.1" xmlns="http://www.w3.org/2000/svg" xmlns:xlink="http://www.w3.org/1999/xlink" xml:space="preserve" xmlns:serif="http://www.serif.com/" style="fill-rule:evenodd;clip-rule:evenodd;stroke-linejoin:round;stroke-miterlimit:2;">
    <path d="M14.134,17.076L22.93,25.283L35.205,25.283L22.77,13.277L35.205,1.289L22.93,1.289L14.134,9.478L10.049,9.478L10.049,1.289L0.7,1.289L0.7,25.283L10.049,25.283L10.049,17.076L14.134,17.076Z" style="fill:none;fill-rule:nonzero;stroke:rgb(0,255,23);stroke-width:1.4px;"/>
    <path d="M36.507,25.283L64.572,25.283L64.572,19.13L45.856,19.13L45.856,16.077L64.572,16.077L64.572,10.531L45.856,10.531L45.856,7.46L64.572,7.46L64.572,1.324L36.507,1.324L36.507,25.283Z" style="fill:none;fill-rule:nonzero;stroke:rgb(0,255,23);stroke-width:1.4px;"/>
    <path d="M69.532,25.283L97.596,25.283L97.596,19.13L78.88,19.13L78.88,16.077L97.596,16.077L97.596,10.531L78.88,10.531L78.88,7.46L97.596,7.46L97.596,1.324L69.532,1.324L69.532,25.283Z" style="fill:none;fill-rule:nonzero;stroke:rgb(0,255,23);stroke-width:1.4px;"/>
    <path d="M111.905,12.422L111.905,8.334L123.323,8.334C123.876,8.334 124.358,8.53 124.75,8.941C125.161,9.333 125.357,9.815 125.357,10.387C125.357,10.94 125.161,11.422 124.75,11.833C124.358,12.225 123.876,12.422 123.323,12.422L111.905,12.422ZM102.556,1.324L102.556,25.283L111.905,25.283L111.905,19.449L125.66,19.449C130.602,19.52 134.795,15.329 134.724,10.387C134.795,5.427 130.602,1.271 125.66,1.324L102.556,1.324Z" style="fill:none;fill-rule:nonzero;stroke:rgb(0,255,23);stroke-width:1.4px;"/>
    <path d="M153.278,25.283L162.627,25.283L162.627,18.86L180.183,18.86L180.183,11.851L162.627,11.851L162.627,8.923L182.52,8.923L182.52,1.324L153.278,1.324L153.278,25.283Z" style="fill:none;fill-rule:nonzero;stroke:rgb(0,255,23);stroke-width:1.4px;"/>
    <rect x="185.196" y="1.289" width="9.349" height="23.994" style="fill:none;fill-rule:nonzero;stroke:rgb(0,255,23);stroke-width:1.4px;"/>
    <path d="M213.6,16.202L221.129,16.202C219.719,18.024 217.364,18.238 213.671,18.238C209.835,18.184 206.588,17.506 206.642,13.563L206.642,12.974C206.588,9.066 209.835,8.352 213.671,8.298C215.045,8.298 216.294,8.441 217.4,8.727C218.506,9.012 219.362,9.548 219.951,10.351L229.889,10.351C228.836,2.965 221.985,0.7 213.671,0.7C204.643,0.718 197.257,3.322 197.293,12.404L197.293,14.151C197.257,23.214 204.643,25.818 213.671,25.854C217.739,25.854 221.967,24.873 224.751,22.126L225.214,25.854L229.889,25.854L229.889,12.101L213.6,12.101L213.6,16.202Z" style="fill:none;fill-rule:nonzero;stroke:rgb(0,255,23);stroke-width:1.4px;"/>
    <path d="M257.543,17.076L257.543,25.283L266.909,25.283L266.909,1.289L257.543,1.289L257.543,9.478L243.502,9.478L243.502,1.289L234.153,1.289L234.153,25.283L243.502,25.283L243.502,17.076L257.543,17.076Z" style="fill:none;fill-rule:nonzero;stroke:rgb(0,255,23);stroke-width:1.4px;"/>
    <path d="M290.62,25.283L290.62,8.923L301.736,8.923L301.736,1.324L270.157,1.324L270.157,8.923L281.272,8.923L281.272,25.283L290.62,25.283Z" style="fill:none;fill-rule:nonzero;stroke:rgb(0,255,23);stroke-width:1.4px;"/>
    <rect x="304.858" y="1.289" width="9.349" height="23.994" style="fill:none;fill-rule:nonzero;stroke:rgb(0,255,23);stroke-width:1.4px;"/>
    <path d="M342.556,14L332.03,1.289L319.166,1.289L319.166,25.283L328.515,25.283L328.515,10.626L341.397,25.283L351.923,25.283L351.923,1.289L342.556,1.289L342.556,14Z" style="fill:none;fill-rule:nonzero;stroke:rgb(0,255,23);stroke-width:1.4px;"/>
    <path d="M371.548,16.202L379.077,16.202C377.668,18.024 375.313,18.238 371.62,18.238C367.784,18.184 364.537,17.506 364.59,13.563L364.59,12.974C364.537,9.066 367.784,8.352 371.62,8.298C372.994,8.298 374.242,8.441 375.349,8.727C376.455,9.012 377.311,9.548 377.9,10.351L387.837,10.351C386.785,2.965 379.934,0.7 371.62,0.7C362.592,0.718 355.206,3.322 355.242,12.404L355.242,14.151C355.206,23.214 362.592,25.818 371.62,25.854C375.688,25.854 379.916,24.873 382.699,22.126L383.163,25.854L387.837,25.854L387.837,12.101L371.548,12.101L371.548,16.202Z" style="fill:none;fill-rule:nonzero;stroke:rgb(0,255,23);stroke-width:1.4px;"/>
</svg>
