<?xml version="1.0" encoding="UTF-8" standalone="no"?>
<!DOCTYPE svg PUBLIC "-//W3C//DTD SVG 1.1//EN" "http://www.w3.org/Graphics/SVG/1.1/DTD/svg11.dtd">
<svg width="100%" height="100%" viewBox="0 0 606 394" version="1.1" xmlns="http://www.w3.org/2000/svg" xmlns:xlink="http://www.w3.org/1999/xlink" xml:space="preserve" xmlns:serif="http://www.serif.com/" style="fill-rule:evenodd;clip-rule:evenodd;stroke-linejoin:round;stroke-miterlimit:2;">
    <g transform="matrix(1,0,0,1,-136.905,-241.043)">
        <g transform="matrix(0.115083,0.993356,0.993356,-0.115083,-32.9797,37.0211)">
            <g transform="matrix(0.999856,0.0169532,-0.0169532,0.999856,7.50399,-7.6552)">
                <path d="M271,268.7C270,263.9 270,257 274.5,254.3C280.5,250.7 288.4,257.9 292.3,262C295,264.8 297.9,268.4 300.9,272.9C306.5,281.8 311.4,289.7 312.5,300.1C313.8,312.9 324.9,344.4 326.7,348.8C326.8,345.8 327.2,342.3 327.5,338.5C328.5,328.6 329.3,317.1 329.8,308.6C330.4,300.1 331.5,294.1 333.4,289.9C335.3,285.7 338.2,283.4 341.8,282.9C345.3,282.4 348.8,283.9 351.5,288.3C354.2,292.7 356.2,300 355.4,310.5C355,315.7 353.9,321.8 352,327.8C350.1,333.8 347.5,339.6 344.6,344.5C341.7,349.4 338.4,353.3 335.6,355.8C333.6,357.5 331.8,358.4 330.4,358.6C331.6,361.9 342.1,400.4 343.4,407C343.4,407.2 343.5,407.5 343.5,407.7C344.2,396.3 346.9,381.7 350.1,371.5C355.9,353 363.7,347.2 370.5,349.3C377.3,351.4 380.5,360.6 374.7,379.1C368.9,397.6 353.7,427.2 346.9,425.1C346.8,425.1 346.7,425 346.6,425C349.7,445.2 352,486.2 352.1,488.9C353.6,484.2 378.8,409.4 391.4,379.5C397.7,364.5 413.7,332.3 413.8,332.1C414.1,331.6 414.5,330.4 414.5,328.5C414.7,327.4 401.3,315.1 399.7,313C392.2,303.1 383,293.3 377.9,281.7C376.4,278.3 375.7,274.9 376.7,271.4C377.2,269.7 378.1,268.2 379.6,267.1C384.3,263.6 391.2,265.8 395.8,268.4C399.4,270.4 403.1,273.5 406.4,277.7C408.1,279.8 412.6,287.7 413.2,289.2C413,287.4 412.9,285.7 412.7,283.8C411.5,274.4 410.1,264.3 407.9,254.4C407.7,253.6 398.2,241.9 395.3,239.2C392.4,236.4 377.2,226.9 373.4,224.7C367.7,221.4 351.6,209.2 356.8,200.6C357.8,198.8 360.1,197.2 363.4,196.4C366.7,195.6 370.9,195.9 374.9,197.1C381.9,199.2 394,206.9 397,215.9C396.1,213.5 392.6,203.3 391.7,201.2C385.4,186.5 375.5,173.8 368.7,159.3C366.9,155.3 365.6,151.7 364.8,148.6C363.9,143.4 363.9,133.9 368.7,130.4C378.8,123.1 389.7,138 393,144.9C396.9,153.3 399.7,169 401.2,179.2C403,190.8 397.9,199.4 402.1,210.4C405.8,219.9 408,230.1 410.3,240C410.6,241.2 414,252.1 414.2,253C414.2,253.2 414.3,253.3 414.3,253.5C414.7,252.1 424.2,231.9 429.4,226.3C434.7,220.6 439.6,217.9 443.7,217.3C447.8,216.7 451,218.1 453.4,220.8C455.8,223.5 456.8,226.8 456.1,230.7C455.4,234.5 452.9,238.8 448.3,243.9C443.6,248.9 436.7,255 430.4,259.8C425,263.9 419.9,267 416.7,266.7C417.6,272.3 418.4,277.8 419,283.2C420,292.8 420.7,301.9 420.8,309.6C420.9,313.3 421,316.8 420.9,319.8C425,313 429.1,306.6 432.9,300.4C451,271.6 469,241.5 493.2,217.3C494.8,215.7 496.5,214.1 498.4,212.4C496,210 494.1,204.3 493.3,197.3C492.2,188.1 493.2,176.7 495.6,168.7C497.4,162.7 501.4,153.4 507.6,150.7C510.5,149.3 513.2,149.5 515,150.6C523.2,155 522.4,168.5 520.2,175.9C518.1,182.9 510.3,201.9 509.9,202.9C512.6,200.8 515.4,198.8 518.3,196.9C536.2,185.2 553.3,168.1 574.2,162C580.4,160.2 586.1,159.6 590.9,160C595.8,160.3 599.8,161.6 602.6,163.2C612.1,168.6 610,169.9 603,178.9C600.2,182.5 588,189.4 579,191.9C562.9,196.4 547.5,201.2 530.4,200C530,200 529.6,199.9 529.1,199.9C527.2,201.3 508.7,217.7 503.2,223.7C511.9,218.8 535.7,215.7 551,216.1C569.9,216.7 577.3,222.6 577.1,229.7C576.9,236.8 569.1,242.3 550.3,241.8C531.4,241.2 499.8,234.5 500,227.4L500,227.3C494.4,233.8 480.9,251.7 479.1,254.2C486.3,252 494.1,250.4 500.4,249.8C516.8,248.2 523.9,253.3 524.6,260.3C525.3,267.4 519.3,273.7 502.9,275.4C492,276.5 475.9,275.5 466.2,272.7C459.6,282.5 452,294 443.8,307C437,317.9 429.4,329.7 422.6,342.4C415.7,355.1 409.3,369.2 403.1,383.9C400.5,390.2 397.9,396.6 395.3,403.1C395.7,403 407.1,397.4 414,392.2C417.5,389.7 421.1,386.7 425.1,383.6C429,380.5 433.3,377.1 437.9,374C441,371.9 444.3,369.9 447.8,368.1C446.6,364.9 448.8,358.2 451.8,350.6C455.3,341.8 459.8,331.7 463.5,324.3C467.2,317 470.7,312.2 474.3,309.6C477.8,306.9 481.4,306.4 484.8,307.6C488.1,308.8 490.6,311.6 491.2,316.3C491.9,321 490.7,327.7 486.4,336.1C482.2,344.5 474.4,354.6 466.6,361.4C466.4,361.6 466.2,361.7 466,361.9C467.5,361.6 507.4,354.1 522.8,351.3C521.3,348.5 520.5,343.9 520.7,338.6C520.9,330 524,319.6 528.1,312.9C532.2,306.1 536.8,302.6 540.8,301.5C544.8,300.3 548.2,301.5 550.8,303.9C553.4,306.3 554.9,309.5 554.8,313.1C554.8,316.8 553.3,321 550.2,326.1C547,331.3 542.4,338 538.1,344C536.7,345.9 535.4,347.7 534,349.3C551.2,346.1 562.6,344 562.6,344C562.9,343.9 565.8,343.5 569.7,343.1C569.6,339.7 575.4,335.2 583.8,331.8C592.7,328.2 604.4,326.2 613.2,326.7C621.8,327.1 630.9,330.5 637.3,336.3C645,343.2 634.9,347.2 628.5,350.3C624.8,352.1 619.5,352.8 612.2,352.5C604.8,352.1 594.9,351.1 586.4,350C582.1,349.4 578.1,348.7 575.1,347.7C569.3,349.2 531.9,356.3 494.7,363.1C495.3,363.2 540.1,370.7 555.2,377.9C557.3,378.9 562.5,384.2 562.9,385.9C565,394.9 553.2,398.3 546.7,399C542.3,399.5 537,399.3 531.3,397.9C515.4,394 495,384.5 485.1,370.8C483.5,368.6 482.7,366.7 482.6,365.2C479.1,365.8 460.8,369.5 455.8,371.6C450.8,373.7 446,376.4 441.6,379.4C432.8,385.4 425.1,392.3 417.9,397.5C410.8,402.9 404.1,406.7 399,408.7C397.8,409.2 393.8,410.6 393,410.7C392.8,410.8 392.6,410.8 392.4,410.8C388,422.2 383.8,433.9 379.7,445.7C382.4,443 385.6,440 389.8,437.2C394.7,434 400.1,431.7 404.8,430.6C414.4,428.3 421.5,429.9 425.5,432.4C429.6,435 430.8,438.5 430.3,442C429,451.1 419.6,452.7 412.3,455.1C400.1,459.1 387.2,464.3 374.3,464.3C374,464.3 373.7,464.2 373.4,464.1C371.8,468.8 370.3,473.5 368.7,478.2C358.1,510.8 348.7,543.7 340.4,574.8C332.1,605.8 325.4,635 320.1,660.1C317.6,672 310.6,749.7 300.1,749.1C282.2,748 326.4,580 328.6,571.6C330.8,563.2 333.2,554.6 335.6,546C328.4,538.2 318.9,513.7 315.2,497.4C310.6,477.4 314.3,468 321.3,466.4C328.2,464.8 335.7,471.6 340.3,491.6C342,498.8 343.3,508 344,516.8C344.7,514.5 346.2,506.5 346.2,504.1C346.4,498.3 346.4,490 346.1,480.1C345.6,462.1 343.4,438.8 339.2,415.2C339,415.8 338.6,416.2 338.2,416.5C335.3,418.5 328.5,414.3 320.7,408.6C316.8,405.7 312.7,402.4 308.8,399.2C301.5,393.3 276.7,383.6 283.8,370.6C285.4,367.4 288.5,365.4 293.1,365.1C305.9,364.3 319,373.1 326.3,383C329.6,387.5 335.9,399.1 336.3,400.1C335.5,396.2 334.6,392.2 333.7,388.3C332.2,382 330.4,375.9 328.5,370C324.7,358.2 320.2,347.5 316.1,338.5C312.9,331.4 309.8,325.5 307.3,320.8C305.5,319 303.7,317 301.8,314.8C294.2,306.1 285.7,295.1 279.9,286.5C277,282.2 274.9,278.4 273.3,275C272.5,273.3 271.9,271.7 271.4,270.2L271.4,270.1C271.3,269.8 271.1,269.2 271,268.7Z" style="fill:rgb(187,206,167);fill-rule:nonzero;"/>
            </g>
        </g>
    </g>
</svg>
