<?xml version="1.0" encoding="UTF-8" standalone="no"?>
<!DOCTYPE svg PUBLIC "-//W3C//DTD SVG 1.1//EN" "http://www.w3.org/Graphics/SVG/1.1/DTD/svg11.dtd">
<svg width="100%" height="100%" viewBox="0 0 388 26" version="1.1" xmlns="http://www.w3.org/2000/svg" xmlns:xlink="http://www.w3.org/1999/xlink" xml:space="preserve" xmlns:serif="http://www.serif.com/" style="fill-rule:evenodd;clip-rule:evenodd;stroke-linejoin:round;stroke-miterlimit:2;">
    <path d="M13.434,16.376L22.23,24.583L34.505,24.583L22.07,12.577L34.505,0.589L22.23,0.589L13.434,8.778L9.349,8.778L9.349,0.589L0,0.589L0,24.583L9.349,24.583L9.349,16.376L13.434,16.376Z" style="fill:rgb(0,255,23);fill-rule:nonzero;"/>
    <path d="M35.807,24.583L63.872,24.583L63.872,18.43L45.156,18.43L45.156,15.377L63.872,15.377L63.872,9.831L45.156,9.831L45.156,6.76L63.872,6.76L63.872,0.624L35.807,0.624L35.807,24.583Z" style="fill:rgb(0,255,23);fill-rule:nonzero;"/>
    <path d="M68.832,24.583L96.896,24.583L96.896,18.43L78.18,18.43L78.18,15.377L96.896,15.377L96.896,9.831L78.18,9.831L78.18,6.76L96.896,6.76L96.896,0.624L68.832,0.624L68.832,24.583Z" style="fill:rgb(0,255,23);fill-rule:nonzero;"/>
    <path d="M111.205,11.722L111.205,7.634L122.623,7.634C123.176,7.634 123.658,7.83 124.05,8.241C124.461,8.633 124.657,9.115 124.657,9.687C124.657,10.24 124.461,10.722 124.05,11.133C123.658,11.525 123.176,11.722 122.623,11.722L111.205,11.722ZM101.856,0.624L101.856,24.583L111.205,24.583L111.205,18.749L124.96,18.749C129.902,18.82 134.095,14.629 134.024,9.687C134.095,4.727 129.902,0.571 124.96,0.624L101.856,0.624Z" style="fill:rgb(0,255,23);fill-rule:nonzero;"/>
    <path d="M152.578,24.583L161.927,24.583L161.927,18.16L179.483,18.16L179.483,11.151L161.927,11.151L161.927,8.223L181.82,8.223L181.82,0.624L152.578,0.624L152.578,24.583Z" style="fill:rgb(0,255,23);fill-rule:nonzero;"/>
    <rect x="184.496" y="0.589" width="9.349" height="23.994" style="fill:rgb(0,255,23);fill-rule:nonzero;"/>
    <path d="M212.9,15.502L220.429,15.502C219.019,17.324 216.664,17.538 212.971,17.538C209.135,17.484 205.888,16.806 205.942,12.863L205.942,12.274C205.888,8.366 209.135,7.652 212.971,7.598C214.345,7.598 215.594,7.741 216.7,8.027C217.806,8.312 218.662,8.848 219.251,9.651L229.189,9.651C228.136,2.265 221.285,-0 212.971,-0C203.943,0.018 196.557,2.622 196.593,11.704L196.593,13.451C196.557,22.514 203.943,25.118 212.971,25.154C217.039,25.154 221.267,24.173 224.051,21.426L224.514,25.154L229.189,25.154L229.189,11.401L212.9,11.401L212.9,15.502Z" style="fill:rgb(0,255,23);fill-rule:nonzero;"/>
    <path d="M256.843,16.376L256.843,24.583L266.209,24.583L266.209,0.589L256.843,0.589L256.843,8.778L242.802,8.778L242.802,0.589L233.453,0.589L233.453,24.583L242.802,24.583L242.802,16.376L256.843,16.376Z" style="fill:rgb(0,255,23);fill-rule:nonzero;"/>
    <path d="M289.92,24.583L289.92,8.223L301.036,8.223L301.036,0.624L269.457,0.624L269.457,8.223L280.572,8.223L280.572,24.583L289.92,24.583Z" style="fill:rgb(0,255,23);fill-rule:nonzero;"/>
    <rect x="304.158" y="0.589" width="9.349" height="23.994" style="fill:rgb(0,255,23);fill-rule:nonzero;"/>
    <path d="M341.856,13.3L331.33,0.589L318.466,0.589L318.466,24.583L327.815,24.583L327.815,9.926L340.697,24.583L351.223,24.583L351.223,0.589L341.856,0.589L341.856,13.3Z" style="fill:rgb(0,255,23);fill-rule:nonzero;"/>
    <path d="M370.848,15.502L378.377,15.502C376.968,17.324 374.613,17.538 370.92,17.538C367.084,17.484 363.837,16.806 363.89,12.863L363.89,12.274C363.837,8.366 367.084,7.652 370.92,7.598C372.294,7.598 373.542,7.741 374.649,8.027C375.755,8.312 376.611,8.848 377.2,9.651L387.137,9.651C386.085,2.265 379.234,-0 370.92,-0C361.892,0.018 354.506,2.622 354.542,11.704L354.542,13.451C354.506,22.514 361.892,25.118 370.92,25.154C374.988,25.154 379.216,24.173 381.999,21.426L382.463,25.154L387.137,25.154L387.137,11.401L370.848,11.401L370.848,15.502Z" style="fill:rgb(0,255,23);fill-rule:nonzero;"/>
</svg>
