<?xml version="1.0" encoding="UTF-8" standalone="no"?>
<!DOCTYPE svg PUBLIC "-//W3C//DTD SVG 1.1//EN" "http://www.w3.org/Graphics/SVG/1.1/DTD/svg11.dtd">
<svg width="100%" height="100%" viewBox="0 0 321 511" version="1.1" xmlns="http://www.w3.org/2000/svg" xmlns:xlink="http://www.w3.org/1999/xlink" xml:space="preserve" xmlns:serif="http://www.serif.com/" style="fill-rule:evenodd;clip-rule:evenodd;stroke-linejoin:round;stroke-miterlimit:2;">
    <g transform="matrix(1,0,0,1,-543.169,-353.419)">
        <g transform="matrix(0.725411,-0.688316,0.688316,0.725411,104.067,612.99)">
            <path d="M517.4,187.2C514.6,185.6 509.9,184.5 503.3,184.4C496.7,184.3 487.7,185.6 480.7,187.7C478.5,188.4 477.7,189.2 476,190C480.4,182.6 489.1,170.1 490.1,170C492.4,169.7 495.8,168.7 498.9,166.7C502.1,164.8 505.1,162.1 507.7,159.5C512.2,155 524.5,144.7 521.2,137.2C520.8,136.3 520.1,135.5 519.1,135C508.5,129.7 497.3,143.1 493,150C490.1,154.6 489.3,160.6 486,165C484.1,167.6 476.4,176.5 476,179.5C476.8,172.9 478.1,165.2 479.1,159.5C480.1,153.8 480.5,149.7 480.1,146.7C479.7,143.7 478.5,141.9 476.5,141.1C474.6,140.3 472.3,140.8 470.1,143.2C461.5,152.6 462.5,168.8 465.4,180.3C466.3,183.9 467.7,187 468.9,189.1C469.2,189.5 464.4,198.6 461.8,203.2C457.9,209.9 450,224.6 449.8,224.7C449.4,222.8 448.8,220.8 448.3,218.5C446.9,211.9 449.8,176 435.6,180.7C420.2,185.8 432.2,215.6 437.9,223.5C440.3,226.8 443,229.2 445.1,230.7C445.7,231.1 446.2,231.4 446.7,231.6C443.3,238.6 439.8,245.8 436.4,253.3C432.9,260.9 429.5,268.7 426,276.6C425.2,274.3 423.9,271.7 422.5,268.9C417.9,260 416.4,250.1 412.1,241.2C410.9,238.7 409.2,236.7 406.7,235.6C405.5,235.1 404.2,234.9 402.8,235.2C395.4,236.8 394.9,249.1 396.1,254.8C398.1,264.3 404.4,272.4 412.1,278.1C415.3,280.5 418.4,282.1 420.9,282.9C421.7,283.2 422.4,283.4 423.1,283.5C419.2,292.6 415.2,301.8 411.2,311.2C409.5,315.2 407.8,319.2 406.2,323.3C405.6,324.8 401.5,332 402.1,333.3C402,333.1 401.9,332.8 401.8,332.6C401.6,332.2 401.5,331.7 401.3,331.3C400.5,329.7 399.9,328 399.2,326.4C397.2,321.9 395.1,317 393.1,312.2C391.1,307.4 389.3,302.7 387.6,298.7C384.3,290.7 381.6,285.2 378.7,281.9C375.9,278.5 372.9,277.3 370.1,277.9C353.4,281.4 371.8,314.9 376.1,321.4C379.4,326.4 383.2,331.1 387.1,334.9C388.8,336.8 390.9,338.7 393,340.1C394.7,341.4 396.5,342.5 398.3,343.1C394.5,352.9 390.9,362.8 387.6,372.7C386.9,374.7 386.3,376.8 385.6,378.8C384.5,377.1 383.3,375.3 382.1,373.4C379.6,369.6 376.9,365.4 374.5,361.3C372,357.2 369.8,353.2 367.9,349.7C364.1,342.8 361,338.2 357.8,335.4C355.2,333.2 351.9,331.6 348.5,332.5C347,332.9 345.7,333.8 344.7,335.1C343.7,336.4 342.9,338.3 342.7,340.6C342.2,345.3 343.5,352.3 348.2,360.8C350.6,365 354,369.7 358,373.9C362,378.1 366.5,382 371,384.8C374.4,387 378.1,388.6 381.9,390.1C382,390.1 382.1,390.2 382.3,390.2C380.9,394.9 379.7,399.6 378.5,404.4C376.2,414.9 373.8,425.5 372.2,436.2C371.9,438.4 371.6,440.5 371.3,442.7C371.2,442.6 371.1,442.5 371,442.4C370.3,441.7 369.6,441 368.9,440.2C364.1,434.7 358.9,429.6 354.4,423.8C351.3,419.8 348.6,415.8 346.3,412.4C341.7,405.5 338.4,400.7 335.3,397.7C332.8,395.5 329.9,393.4 326.4,394.4C317.1,397.1 322.2,412.1 325,417.7C326,419.7 327.1,421.9 328.6,424C331.5,428.4 335.5,433.1 340.2,437.2C344.9,441.3 350.2,444.8 355.3,447.3C358.7,448.9 362.2,450.5 365.9,451.2C366.9,451.4 367.9,451.6 368.8,451.7C369.1,451.7 369.4,451.8 369.7,451.8C367.4,451.8 366,495 365.5,499.7C365.2,499.5 365,499.2 364.8,499C364.2,498.4 363.5,497.7 362.8,497.1C362.4,496.8 362.1,496.5 361.7,496.1C359.7,494.1 357.7,492.3 355.7,490.3C349.1,483.7 342.8,475.8 338.2,467.6C334.5,461.6 328.5,446.5 319.3,448.3C317.8,448.6 316.4,449.2 315.3,450.5C304.3,463.5 321,484.9 330.9,493.4C339.6,500.9 353.1,509 365.1,506.6C364.3,522.7 363.9,537.8 363.8,551.7C360.9,549.2 357.2,546.5 353.1,543.5C348.1,539.9 342.5,535.9 337,532.1C329.3,526.5 321.9,520.5 315.3,513.6C313.2,511.4 311.5,509.6 310.2,508.2C309.4,507.5 308.8,506.8 308,506.1C307.2,505.5 306.6,504.9 305.8,504.4C304.3,503.4 302.7,502.8 301.1,502.8C299.4,502.8 297.9,503.3 296.5,504.8C295.8,505.5 295.1,506.5 294.7,507.8C294.3,509 293.8,510.6 293.8,512.3C293.5,515.9 294.3,520.4 296.6,525.2C298.9,530 302.6,535 307.7,539.5C310.2,541.8 313.1,543.9 316.2,545.9C319.3,547.8 322.6,549.7 326,551.2C332.5,554.2 339.4,556.8 345.7,558.7C352.9,560.8 359.3,561.9 363.7,561.9C363.7,571.7 363.8,580.9 364,589.5C364.6,615.7 365.8,636.9 367.1,653.4C368.4,669.9 369.8,681.8 371,689.6C372.3,697.4 373.3,701 374.2,700.9C375.1,700.8 384.7,703.8 385,696C385.3,688.2 378.3,661.5 378,645C377.8,628.5 375.2,615.4 375,589.3C374.9,580.2 374.9,570.4 375,560.1C375.7,559.8 376.4,559.5 377.1,559.1C380.7,557.4 385.1,554.7 390.2,551.9C395.2,549 400.8,546 406.3,543C411.8,540 417.2,537.1 421.8,534.5C431,529.2 437.2,524.6 440.6,520.4C444,516.2 444.6,512.5 443.1,509.6C441.6,506.7 438.2,505 432.8,505.4C427.4,505.8 419.8,508.1 409.9,513.8C398.4,520.4 387.7,528.9 379.2,539.1C377.7,540.8 376.4,542.6 375.2,544.3C375.4,533.2 375.7,521.4 376.2,509C379.8,508.1 385.5,504.8 391.8,500.8C401,494.9 411.6,487.2 419.3,481.2C426.9,475.1 431.7,470.1 434.1,465.9C436.5,461.7 436.6,458.2 434.8,455.7C433,453.2 429.8,452 424.8,453C419.9,454 413.3,457.3 405.2,463.7C397.1,470.1 387.5,480.1 380.8,489.3C379.3,491.3 378,493.3 376.8,495.2C377,490.9 377.3,486.4 377.6,482C378.3,472.4 380.1,462.4 380.1,452.8C380.1,452.5 380.2,452.3 380.2,452C383.7,452 389.2,450.5 395.4,448.2C404.8,444.7 415.8,439.1 423.4,434.1C438.6,424.1 441.8,415.9 438.5,411.2C435.1,406.4 426.7,406.8 411.9,416.6C404.5,421.5 395.1,428.9 387.7,435.6C385.4,437.7 383.3,439.8 381.6,441.7C381.8,440.4 389.8,397.5 391,392.8C394.3,393.2 399,392.8 404.3,391.6C408.9,390.6 414,389 418.7,387C423.5,385 428,382.6 431.6,380.3C438.8,375.6 442.9,370.8 444.6,366.9C446.3,362.9 445.8,359.7 443.8,357.3C441.8,354.9 438.7,353.8 434.7,354.4C430.7,355 425.7,357.3 419.3,361.5C412.9,365.8 404.6,371.9 397.6,377.3C396.6,378.1 404.4,355.9 408,346C411.1,346.5 414.2,346 419.9,344.8C428.7,343 439,339.5 446.3,336C453.6,332.5 458.1,328.8 460.4,325.5C462.7,322.1 462.9,319.1 461.6,316.5C460.2,313.9 457.6,312.4 453.6,312.3C449.6,312.2 444.2,313.7 437.1,317.1C430.1,320.5 421,326 413.9,331.2C412.7,332.1 432.6,282 433,281C435.2,281.7 436.9,282.5 440.7,282.4C446.9,282.1 454.2,281 459.5,279.5C470,276.5 473.3,271.6 472.1,266.8C470.9,262 465.5,259.1 454.6,262.2C449.2,263.7 442.2,266.9 436.9,270.3C436.4,270.6 450.5,239.6 454,232C455.7,232.4 456,233.1 458.1,233.4C464.7,234.3 472.9,234.2 478.8,233.3C484.8,232.4 488.8,230.8 491.1,228.8C493.5,226.8 494.3,224.6 493.8,222.4C493.4,220.2 491.8,218.4 489,217.4C486.2,216.4 482,216.2 476.3,217C470.7,217.8 465.1,219 459,221C461.7,215.5 470.3,200 472,197C474.3,197.9 476.9,198 481.5,198.4C488.4,199 496.7,199.4 502.8,199.5C508.9,199.5 513.3,199 516.2,197.8C519.1,196.7 520.6,194.9 520.8,192.9C521.3,190.8 520.2,188.8 517.4,187.2Z" style="fill:rgb(109,203,0);fill-rule:nonzero;"/>
        </g>
    </g>
</svg>
