<?xml version="1.0" encoding="UTF-8" standalone="no"?>
<!DOCTYPE svg PUBLIC "-//W3C//DTD SVG 1.1//EN" "http://www.w3.org/Graphics/SVG/1.1/DTD/svg11.dtd">
<svg width="100%" height="100%" viewBox="0 0 419 55" version="1.1" xmlns="http://www.w3.org/2000/svg" xmlns:xlink="http://www.w3.org/1999/xlink" xml:space="preserve" xmlns:serif="http://www.serif.com/" style="fill-rule:evenodd;clip-rule:evenodd;stroke-linejoin:round;stroke-miterlimit:2;">
    <path d="M34.607,6.698L46.993,6.698L46.993,44.016L34.607,44.016L34.607,31.045L12.386,31.045L12.386,44.016L0,44.016L0,6.698L12.386,6.698L12.386,19.616L34.607,19.616L34.607,6.698Z" style="fill:rgb(255,0,74);fill-rule:nonzero;"/>
    <path d="M72.35,12.493C76,12.493 79.172,12.811 81.866,13.449C84.559,14.087 86.898,15.133 88.883,16.586C90.867,18.039 92.32,20.015 93.242,22.513C94.163,25.012 94.482,28.015 94.199,31.524L62.622,31.524C62.799,32.481 63.667,33.26 65.227,33.863C66.786,34.465 69.125,34.766 72.244,34.766C74.973,34.766 77.693,34.589 80.404,34.235C83.115,33.88 85.162,33.526 86.544,33.172L88.564,32.64L93.88,41.252C93.773,41.323 93.579,41.42 93.295,41.544C93.012,41.668 92.294,41.89 91.142,42.209C89.99,42.528 88.688,42.811 87.235,43.059C85.782,43.307 83.762,43.529 81.175,43.724C78.588,43.919 75.752,44.016 72.669,44.016C69.054,44.016 65.909,43.768 63.233,43.272C60.558,42.776 58.378,42.085 56.695,41.199C55.011,40.313 53.656,39.196 52.628,37.85C51.6,36.503 50.891,35.068 50.502,33.544C50.112,32.02 49.917,30.248 49.917,28.228C49.917,23.266 51.804,19.403 55.578,16.639C59.353,13.875 64.943,12.493 72.35,12.493ZM72.457,22.008C70.507,22.008 68.842,22.15 67.46,22.433C66.077,22.717 65.067,23.08 64.429,23.523C63.791,23.966 63.331,24.4 63.047,24.826C62.764,25.251 62.622,25.676 62.622,26.101L81.653,26.101C81.653,24.932 80.953,23.957 79.553,23.178C78.153,22.398 75.788,22.008 72.457,22.008Z" style="fill:rgb(255,0,74);fill-rule:nonzero;"/>
    <path d="M108.02,43.059L91.328,13.556L105.734,13.556L115.197,30.779L124.074,13.556L138.747,13.556L116.632,54.542L101.96,54.542L108.02,43.059Z" style="fill:rgb(255,0,74);fill-rule:nonzero;"/>
    <path d="M130.454,35.776L140.979,35.776L140.979,43.803L129.55,50.183L127.902,48.003L130.454,43.803L130.454,35.776Z" style="fill:rgb(255,0,74);fill-rule:nonzero;"/>
    <path d="M170.164,13.237L182.55,13.237L182.55,44.016L170.164,44.016L170.164,13.237ZM170.164,4.838L182.55,4.838L182.55,10.845L170.164,10.845L170.164,4.838Z" style="fill:rgb(255,0,74);fill-rule:nonzero;"/>
    <path d="M208.386,33.916C209.272,33.916 210.228,33.854 211.256,33.73C212.284,33.606 213.205,33.455 214.02,33.278C214.836,33.101 215.589,32.915 216.28,32.72C216.971,32.525 217.52,32.365 217.928,32.241C218.335,32.117 218.521,32.055 218.486,32.055L222.898,41.624C222.367,41.837 221.587,42.076 220.559,42.342C219.531,42.607 217.325,42.98 213.941,43.458C210.556,43.936 207.039,44.176 203.389,44.176C201.652,44.176 200.226,44.114 199.109,43.99C197.993,43.866 196.974,43.582 196.053,43.139C195.131,42.696 194.422,42.147 193.926,41.491C193.43,40.835 193.005,39.887 192.65,38.647C192.296,37.407 192.066,36.007 191.959,34.447C191.853,32.888 191.8,30.903 191.8,28.494L191.8,22.327L185.633,22.327L185.633,13.077L191.8,13.077L191.8,6.645L204.133,6.645L204.133,13.077L219.177,13.077L219.177,22.327L204.133,22.327L204.133,28.786C204.133,28.91 204.151,29.167 204.186,29.557C204.221,29.947 204.283,30.31 204.372,30.646C204.461,30.983 204.602,31.364 204.797,31.789C204.992,32.215 205.24,32.578 205.542,32.879C205.843,33.18 206.241,33.429 206.738,33.623C207.234,33.818 207.783,33.916 208.386,33.916Z" style="fill:rgb(255,0,74);fill-rule:nonzero;"/>
    <path d="M228.374,0L238.899,0L238.899,8.027L227.47,14.406L225.822,12.227L228.374,8.027L228.374,0Z" style="fill:rgb(255,0,74);fill-rule:nonzero;"/>
    <path d="M254.05,24.826C257.7,24.826 260.703,24.914 263.06,25.091C265.417,25.269 267.472,25.552 269.227,25.942C270.981,26.332 272.31,26.916 273.214,27.696C274.117,28.476 274.773,29.406 275.181,30.487C275.588,31.568 275.792,32.941 275.792,34.607C275.792,36.06 275.694,37.274 275.5,38.248C275.305,39.223 274.906,40.127 274.303,40.959C273.701,41.792 272.912,42.457 271.938,42.953C270.963,43.449 269.652,43.874 268.004,44.229C266.356,44.583 264.425,44.831 262.21,44.973C259.995,45.115 257.328,45.186 254.209,45.186C243.4,45.186 237.039,44.3 235.125,42.528L238.58,33.703C239.431,34.27 241.522,34.74 244.853,35.112C248.184,35.484 251.463,35.67 254.688,35.67L257.027,35.67C259.968,35.67 261.9,35.626 262.821,35.537C263.742,35.449 264.203,35.192 264.203,34.766C264.203,33.597 260.765,33.012 253.89,33.012C251.09,33.012 248.707,32.932 246.74,32.773C244.773,32.613 242.948,32.321 241.265,31.896C239.581,31.47 238.244,30.895 237.251,30.168C236.259,29.442 235.488,28.502 234.939,27.351C234.389,26.199 234.115,24.826 234.115,23.231C234.115,22.061 234.212,21.016 234.407,20.094C234.602,19.173 234.93,18.367 235.391,17.676C235.851,16.984 236.365,16.382 236.932,15.868C237.499,15.354 238.252,14.92 239.192,14.566C240.131,14.211 241.088,13.928 242.062,13.715C243.037,13.503 244.251,13.343 245.704,13.237C247.157,13.13 248.574,13.051 249.956,12.998C251.338,12.944 253.004,12.918 254.953,12.918C259.277,12.918 262.794,13.06 265.506,13.343C268.217,13.627 270.166,13.963 271.353,14.353C272.54,14.743 273.807,15.292 275.154,16.001L271.326,24.453C269.661,23.851 267.171,23.328 263.858,22.885C260.544,22.442 257.31,22.221 254.156,22.221L252.933,22.221C249.992,22.221 248.096,22.274 247.245,22.38C246.395,22.487 245.969,22.805 245.969,23.337C246.005,24.329 248.698,24.826 254.05,24.826Z" style="fill:rgb(255,0,74);fill-rule:nonzero;"/>
    <path d="M369.778,19.51C370.31,20.821 370.708,22.602 370.974,24.852C371.24,27.103 371.391,29.273 371.426,31.364C371.461,33.455 371.479,36.875 371.479,41.624L371.479,44.016L359.093,44.016L359.093,33.756C359.093,33.331 359.111,32.737 359.146,31.975C359.182,31.214 359.208,30.576 359.226,30.062C359.244,29.548 359.226,28.928 359.173,28.201C359.12,27.475 359.022,26.872 358.88,26.394C358.739,25.915 358.517,25.401 358.216,24.852C357.915,24.303 357.525,23.869 357.046,23.55C356.568,23.231 355.965,22.965 355.239,22.752C354.512,22.54 353.653,22.433 352.661,22.433C350.889,22.433 349.134,22.85 347.398,23.683C345.661,24.515 344.368,25.463 343.517,26.527C343.694,29.043 343.783,34.075 343.783,41.624L343.783,44.016L331.556,44.016L331.556,33.756C331.556,33.366 331.574,32.773 331.609,31.975C331.645,31.178 331.663,30.531 331.663,30.035C331.663,29.539 331.636,28.919 331.583,28.175C331.53,27.43 331.432,26.828 331.29,26.367C331.149,25.906 330.918,25.401 330.599,24.852C330.28,24.303 329.882,23.869 329.403,23.55C328.925,23.231 328.314,22.965 327.569,22.752C326.825,22.54 325.975,22.433 325.018,22.433C321.296,22.433 318.426,23.869 316.406,26.739L316.406,44.016L304.02,44.016L304.02,13.237L316.406,13.237L316.406,17.011C318.32,15.7 320.233,14.699 322.147,14.008C324.061,13.316 326.418,12.971 329.217,12.971C332.159,12.971 334.648,13.334 336.686,14.061C338.724,14.787 340.328,16.196 341.497,18.287C345.644,14.743 350.782,12.971 356.913,12.971C358.118,12.971 359.182,13.015 360.103,13.104C361.024,13.192 362.008,13.37 363.053,13.635C364.099,13.901 365.011,14.264 365.791,14.725C366.571,15.186 367.315,15.815 368.024,16.612C368.733,17.41 369.317,18.375 369.778,19.51Z" style="fill:rgb(255,0,74);fill-rule:nonzero;"/>
    <path d="M396.198,12.493C399.849,12.493 403.02,12.811 405.714,13.449C408.407,14.087 410.746,15.133 412.731,16.586C414.716,18.039 416.169,20.015 417.09,22.513C418.011,25.012 418.33,28.015 418.047,31.524L386.47,31.524C386.647,32.481 387.516,33.26 389.075,33.863C390.634,34.465 392.973,34.766 396.092,34.766C398.821,34.766 401.541,34.589 404.252,34.235C406.963,33.88 409.01,33.526 410.392,33.172L412.412,32.64L417.728,41.252C417.622,41.323 417.427,41.42 417.143,41.544C416.86,41.668 416.142,41.89 414.99,42.209C413.838,42.528 412.536,42.811 411.083,43.059C409.63,43.307 407.61,43.529 405.023,43.724C402.436,43.919 399.601,44.016 396.517,44.016C392.902,44.016 389.757,43.768 387.081,43.272C384.406,42.776 382.226,42.085 380.543,41.199C378.859,40.313 377.504,39.196 376.476,37.85C375.448,36.503 374.74,35.068 374.35,33.544C373.96,32.02 373.765,30.248 373.765,28.228C373.765,23.266 375.652,19.403 379.426,16.639C383.201,13.875 388.791,12.493 396.198,12.493ZM396.305,22.008C394.355,22.008 392.69,22.15 391.308,22.433C389.926,22.717 388.915,23.08 388.278,23.523C387.64,23.966 387.179,24.4 386.895,24.826C386.612,25.251 386.47,25.676 386.47,26.101L405.501,26.101C405.501,24.932 404.801,23.957 403.401,23.178C402.002,22.398 399.636,22.008 396.305,22.008Z" style="fill:rgb(255,0,74);fill-rule:nonzero;"/>
</svg>
